<?xml version="1.0" encoding="UTF-8" standalone="no"?>
<!DOCTYPE svg PUBLIC "-//W3C//DTD SVG 1.1//EN"
 "http://www.w3.org/Graphics/SVG/1.1/DTD/svg11.dtd">
<!-- Generated by graphviz version 2.43.0 (0)
 -->
<!-- Title: snakemake_dag Pages: 1 -->
<svg width="1095pt" height="116pt"
 viewBox="0.00 0.00 1094.50 116.00" xmlns="http://www.w3.org/2000/svg" xmlns:xlink="http://www.w3.org/1999/xlink">
<g id="graph0" class="graph" transform="scale(1 1) rotate(0) translate(4 112)">
<title>snakemake_dag</title>
<polygon fill="white" stroke="transparent" points="-4,4 -4,-112 1090.5,-112 1090.5,4 -4,4"/>
<!-- 0 -->
<g id="node1" class="node">
<title>0</title>
<path fill="none" stroke="#d6d856" stroke-width="2" stroke-dasharray="5,2" d="M611.5,-36C611.5,-36 581.5,-36 581.5,-36 575.5,-36 569.5,-30 569.5,-24 569.5,-24 569.5,-12 569.5,-12 569.5,-6 575.5,0 581.5,0 581.5,0 611.5,0 611.5,0 617.5,0 623.5,-6 623.5,-12 623.5,-12 623.5,-24 623.5,-24 623.5,-30 617.5,-36 611.5,-36"/>
<text text-anchor="middle" x="596.5" y="-15.5" font-family="sans" font-size="10.00">all</text>
</g>
<!-- 1 -->
<g id="node2" class="node">
<title>1</title>
<path fill="none" stroke="#d85656" stroke-width="2" stroke-dasharray="5,2" d="M105,-108C105,-108 12,-108 12,-108 6,-108 0,-102 0,-96 0,-96 0,-84 0,-84 0,-78 6,-72 12,-72 12,-72 105,-72 105,-72 111,-72 117,-78 117,-84 117,-84 117,-96 117,-96 117,-102 111,-108 105,-108"/>
<text text-anchor="middle" x="58.5" y="-87.5" font-family="sans" font-size="10.00">download_from_http</text>
</g>
<!-- 1&#45;&gt;0 -->
<g id="edge1" class="edge">
<title>1&#45;&gt;0</title>
<path fill="none" stroke="grey" stroke-width="2" d="M117.37,-73.78C120.45,-73.14 123.51,-72.54 126.5,-72 286.2,-43.16 479.43,-27.26 559.24,-21.51"/>
<polygon fill="grey" stroke="grey" stroke-width="2" points="559.57,-25 569.3,-20.8 559.07,-18.02 559.57,-25"/>
</g>
<!-- 2 -->
<g id="node3" class="node">
<title>2</title>
<path fill="none" stroke="#56d8d8" stroke-width="2" stroke-dasharray="5,2" d="M241.5,-108C241.5,-108 147.5,-108 147.5,-108 141.5,-108 135.5,-102 135.5,-96 135.5,-96 135.5,-84 135.5,-84 135.5,-78 141.5,-72 147.5,-72 147.5,-72 241.5,-72 241.5,-72 247.5,-72 253.5,-78 253.5,-84 253.5,-84 253.5,-96 253.5,-96 253.5,-102 247.5,-108 241.5,-108"/>
<text text-anchor="middle" x="194.5" y="-87.5" font-family="sans" font-size="10.00">download_from_ncbi</text>
</g>
<!-- 2&#45;&gt;0 -->
<g id="edge2" class="edge">
<title>2&#45;&gt;0</title>
<path fill="none" stroke="grey" stroke-width="2" d="M253.77,-73.86C256.72,-73.21 259.64,-72.58 262.5,-72 369.36,-50.21 496.99,-32.14 558.99,-23.86"/>
<polygon fill="grey" stroke="grey" stroke-width="2" points="559.63,-27.31 569.08,-22.52 558.71,-20.37 559.63,-27.31"/>
</g>
<!-- 3 -->
<g id="node4" class="node">
<title>3</title>
<path fill="none" stroke="#59d856" stroke-width="2" stroke-dasharray="5,2" d="M325,-108C325,-108 284,-108 284,-108 278,-108 272,-102 272,-96 272,-96 272,-84 272,-84 272,-78 278,-72 284,-72 284,-72 325,-72 325,-72 331,-72 337,-78 337,-84 337,-84 337,-96 337,-96 337,-102 331,-108 325,-108"/>
<text text-anchor="middle" x="304.5" y="-93" font-family="sans" font-size="10.00">download</text>
<text text-anchor="middle" x="304.5" y="-82" font-family="sans" font-size="10.00">sample: A</text>
</g>
<!-- 3&#45;&gt;0 -->
<g id="edge3" class="edge">
<title>3&#45;&gt;0</title>
<path fill="none" stroke="grey" stroke-width="2" d="M337.43,-74.73C340.14,-73.75 342.85,-72.82 345.5,-72 419.97,-48.92 509.95,-32.62 559.42,-24.62"/>
<polygon fill="grey" stroke="grey" stroke-width="2" points="560.01,-28.07 569.34,-23.04 558.91,-21.16 560.01,-28.07"/>
</g>
<!-- 4 -->
<g id="node5" class="node">
<title>4</title>
<path fill="none" stroke="#59d856" stroke-width="2" stroke-dasharray="5,2" d="M408,-108C408,-108 367,-108 367,-108 361,-108 355,-102 355,-96 355,-96 355,-84 355,-84 355,-78 361,-72 367,-72 367,-72 408,-72 408,-72 414,-72 420,-78 420,-84 420,-84 420,-96 420,-96 420,-102 414,-108 408,-108"/>
<text text-anchor="middle" x="387.5" y="-93" font-family="sans" font-size="10.00">download</text>
<text text-anchor="middle" x="387.5" y="-82" font-family="sans" font-size="10.00">sample: B</text>
</g>
<!-- 4&#45;&gt;0 -->
<g id="edge4" class="edge">
<title>4&#45;&gt;0</title>
<path fill="none" stroke="grey" stroke-width="2" d="M420.07,-75.19C422.91,-74.08 425.75,-73 428.5,-72 473.03,-55.78 525.21,-39.77 559.46,-29.67"/>
<polygon fill="grey" stroke="grey" stroke-width="2" points="560.88,-32.9 569.49,-26.73 558.91,-26.18 560.88,-32.9"/>
</g>
<!-- 5 -->
<g id="node6" class="node">
<title>5</title>
<path fill="none" stroke="#59d856" stroke-width="2" stroke-dasharray="5,2" d="M491,-108C491,-108 450,-108 450,-108 444,-108 438,-102 438,-96 438,-96 438,-84 438,-84 438,-78 444,-72 450,-72 450,-72 491,-72 491,-72 497,-72 503,-78 503,-84 503,-84 503,-96 503,-96 503,-102 497,-108 491,-108"/>
<text text-anchor="middle" x="470.5" y="-93" font-family="sans" font-size="10.00">download</text>
<text text-anchor="middle" x="470.5" y="-82" font-family="sans" font-size="10.00">sample: C</text>
</g>
<!-- 5&#45;&gt;0 -->
<g id="edge5" class="edge">
<title>5&#45;&gt;0</title>
<path fill="none" stroke="grey" stroke-width="2" d="M501.32,-71.88C519.23,-61.93 541.88,-49.35 560.59,-38.95"/>
<polygon fill="grey" stroke="grey" stroke-width="2" points="562.38,-41.96 569.42,-34.05 558.98,-35.84 562.38,-41.96"/>
</g>
<!-- 6 -->
<g id="node7" class="node">
<title>6</title>
<path fill="none" stroke="#59d856" stroke-width="2" stroke-dasharray="5,2" d="M575.5,-108C575.5,-108 533.5,-108 533.5,-108 527.5,-108 521.5,-102 521.5,-96 521.5,-96 521.5,-84 521.5,-84 521.5,-78 527.5,-72 533.5,-72 533.5,-72 575.5,-72 575.5,-72 581.5,-72 587.5,-78 587.5,-84 587.5,-84 587.5,-96 587.5,-96 587.5,-102 581.5,-108 575.5,-108"/>
<text text-anchor="middle" x="554.5" y="-93" font-family="sans" font-size="10.00">download</text>
<text text-anchor="middle" x="554.5" y="-82" font-family="sans" font-size="10.00">sample: D</text>
</g>
<!-- 6&#45;&gt;0 -->
<g id="edge6" class="edge">
<title>6&#45;&gt;0</title>
<path fill="none" stroke="grey" stroke-width="2" d="M564.88,-71.7C569.76,-63.56 575.69,-53.69 581.08,-44.7"/>
<polygon fill="grey" stroke="grey" stroke-width="2" points="584.09,-46.48 586.24,-36.1 578.09,-42.88 584.09,-46.48"/>
</g>
<!-- 7 -->
<g id="node8" class="node">
<title>7</title>
<path fill="none" stroke="#59d856" stroke-width="2" stroke-dasharray="5,2" d="M659,-108C659,-108 618,-108 618,-108 612,-108 606,-102 606,-96 606,-96 606,-84 606,-84 606,-78 612,-72 618,-72 618,-72 659,-72 659,-72 665,-72 671,-78 671,-84 671,-84 671,-96 671,-96 671,-102 665,-108 659,-108"/>
<text text-anchor="middle" x="638.5" y="-93" font-family="sans" font-size="10.00">download</text>
<text text-anchor="middle" x="638.5" y="-82" font-family="sans" font-size="10.00">sample: E</text>
</g>
<!-- 7&#45;&gt;0 -->
<g id="edge7" class="edge">
<title>7&#45;&gt;0</title>
<path fill="none" stroke="grey" stroke-width="2" d="M628.12,-71.7C623.24,-63.56 617.31,-53.69 611.92,-44.7"/>
<polygon fill="grey" stroke="grey" stroke-width="2" points="614.91,-42.88 606.76,-36.1 608.91,-46.48 614.91,-42.88"/>
</g>
<!-- 8 -->
<g id="node9" class="node">
<title>8</title>
<path fill="none" stroke="#59d856" stroke-width="2" stroke-dasharray="5,2" d="M742,-108C742,-108 701,-108 701,-108 695,-108 689,-102 689,-96 689,-96 689,-84 689,-84 689,-78 695,-72 701,-72 701,-72 742,-72 742,-72 748,-72 754,-78 754,-84 754,-84 754,-96 754,-96 754,-102 748,-108 742,-108"/>
<text text-anchor="middle" x="721.5" y="-93" font-family="sans" font-size="10.00">download</text>
<text text-anchor="middle" x="721.5" y="-82" font-family="sans" font-size="10.00">sample: F</text>
</g>
<!-- 8&#45;&gt;0 -->
<g id="edge8" class="edge">
<title>8&#45;&gt;0</title>
<path fill="none" stroke="grey" stroke-width="2" d="M690.92,-71.88C673.28,-62 651,-49.52 632.52,-39.17"/>
<polygon fill="grey" stroke="grey" stroke-width="2" points="634.22,-36.11 623.78,-34.28 630.8,-42.22 634.22,-36.11"/>
</g>
<!-- 9 -->
<g id="node10" class="node">
<title>9</title>
<path fill="none" stroke="#59d856" stroke-width="2" stroke-dasharray="5,2" d="M826.5,-108C826.5,-108 784.5,-108 784.5,-108 778.5,-108 772.5,-102 772.5,-96 772.5,-96 772.5,-84 772.5,-84 772.5,-78 778.5,-72 784.5,-72 784.5,-72 826.5,-72 826.5,-72 832.5,-72 838.5,-78 838.5,-84 838.5,-84 838.5,-96 838.5,-96 838.5,-102 832.5,-108 826.5,-108"/>
<text text-anchor="middle" x="805.5" y="-93" font-family="sans" font-size="10.00">download</text>
<text text-anchor="middle" x="805.5" y="-82" font-family="sans" font-size="10.00">sample: G</text>
</g>
<!-- 9&#45;&gt;0 -->
<g id="edge9" class="edge">
<title>9&#45;&gt;0</title>
<path fill="none" stroke="grey" stroke-width="2" d="M772.12,-75.22C769.21,-74.1 766.31,-73.01 763.5,-72 719.28,-56.06 667.6,-40.06 633.58,-29.87"/>
<polygon fill="grey" stroke="grey" stroke-width="2" points="634.2,-26.4 623.61,-26.9 632.2,-33.11 634.2,-26.4"/>
</g>
<!-- 10 -->
<g id="node11" class="node">
<title>10</title>
<path fill="none" stroke="#59d856" stroke-width="2" stroke-dasharray="5,2" d="M910.5,-108C910.5,-108 868.5,-108 868.5,-108 862.5,-108 856.5,-102 856.5,-96 856.5,-96 856.5,-84 856.5,-84 856.5,-78 862.5,-72 868.5,-72 868.5,-72 910.5,-72 910.5,-72 916.5,-72 922.5,-78 922.5,-84 922.5,-84 922.5,-96 922.5,-96 922.5,-102 916.5,-108 910.5,-108"/>
<text text-anchor="middle" x="889.5" y="-93" font-family="sans" font-size="10.00">download</text>
<text text-anchor="middle" x="889.5" y="-82" font-family="sans" font-size="10.00">sample: H</text>
</g>
<!-- 10&#45;&gt;0 -->
<g id="edge10" class="edge">
<title>10&#45;&gt;0</title>
<path fill="none" stroke="grey" stroke-width="2" d="M856.22,-74.91C853.29,-73.86 850.36,-72.87 847.5,-72 772.94,-49.23 682.99,-32.82 633.55,-24.72"/>
<polygon fill="grey" stroke="grey" stroke-width="2" points="634.07,-21.26 623.64,-23.12 632.95,-28.17 634.07,-21.26"/>
</g>
<!-- 11 -->
<g id="node12" class="node">
<title>11</title>
<path fill="none" stroke="#59d856" stroke-width="2" stroke-dasharray="5,2" d="M992.5,-108C992.5,-108 952.5,-108 952.5,-108 946.5,-108 940.5,-102 940.5,-96 940.5,-96 940.5,-84 940.5,-84 940.5,-78 946.5,-72 952.5,-72 952.5,-72 992.5,-72 992.5,-72 998.5,-72 1004.5,-78 1004.5,-84 1004.5,-84 1004.5,-96 1004.5,-96 1004.5,-102 998.5,-108 992.5,-108"/>
<text text-anchor="middle" x="972.5" y="-93" font-family="sans" font-size="10.00">download</text>
<text text-anchor="middle" x="972.5" y="-82" font-family="sans" font-size="10.00">sample: I</text>
</g>
<!-- 11&#45;&gt;0 -->
<g id="edge11" class="edge">
<title>11&#45;&gt;0</title>
<path fill="none" stroke="grey" stroke-width="2" d="M940.07,-74.74C937.2,-73.73 934.32,-72.8 931.5,-72 825.96,-42.23 696.7,-27.72 634.07,-22.03"/>
<polygon fill="grey" stroke="grey" stroke-width="2" points="634.16,-18.52 623.89,-21.13 633.54,-25.5 634.16,-18.52"/>
</g>
<!-- 12 -->
<g id="node13" class="node">
<title>12</title>
<path fill="none" stroke="#59d856" stroke-width="2" stroke-dasharray="5,2" d="M1074.5,-108C1074.5,-108 1034.5,-108 1034.5,-108 1028.5,-108 1022.5,-102 1022.5,-96 1022.5,-96 1022.5,-84 1022.5,-84 1022.5,-78 1028.5,-72 1034.5,-72 1034.5,-72 1074.5,-72 1074.5,-72 1080.5,-72 1086.5,-78 1086.5,-84 1086.5,-84 1086.5,-96 1086.5,-96 1086.5,-102 1080.5,-108 1074.5,-108"/>
<text text-anchor="middle" x="1054.5" y="-93" font-family="sans" font-size="10.00">download</text>
<text text-anchor="middle" x="1054.5" y="-82" font-family="sans" font-size="10.00">sample: J</text>
</g>
<!-- 12&#45;&gt;0 -->
<g id="edge12" class="edge">
<title>12&#45;&gt;0</title>
<path fill="none" stroke="grey" stroke-width="2" d="M1022.1,-74.65C1019.22,-73.66 1016.33,-72.75 1013.5,-72 876.7,-35.65 707.82,-23.96 634,-20.42"/>
<polygon fill="grey" stroke="grey" stroke-width="2" points="633.96,-16.92 623.81,-19.96 633.64,-23.91 633.96,-16.92"/>
</g>
</g>
</svg>
