<?xml version="1.0" encoding="UTF-8" standalone="no"?>
<!DOCTYPE svg PUBLIC "-//W3C//DTD SVG 1.1//EN"
 "http://www.w3.org/Graphics/SVG/1.1/DTD/svg11.dtd">
<!-- Generated by graphviz version 2.43.0 (0)
 -->
<!-- Title: snakemake_dag Pages: 1 -->
<svg width="364pt" height="548pt"
 viewBox="0.00 0.00 364.00 548.00" xmlns="http://www.w3.org/2000/svg" xmlns:xlink="http://www.w3.org/1999/xlink">
<g id="graph0" class="graph" transform="scale(1 1) rotate(0) translate(4 544)">
<title>snakemake_dag</title>
<polygon fill="white" stroke="transparent" points="-4,4 -4,-544 360,-544 360,4 -4,4"/>
<!-- 0 -->
<g id="node1" class="node">
<title>0</title>
<path fill="none" stroke="#56d89a" stroke-width="2" stroke-dasharray="5,2" d="M192.5,-36C192.5,-36 162.5,-36 162.5,-36 156.5,-36 150.5,-30 150.5,-24 150.5,-24 150.5,-12 150.5,-12 150.5,-6 156.5,0 162.5,0 162.5,0 192.5,0 192.5,0 198.5,0 204.5,-6 204.5,-12 204.5,-12 204.5,-24 204.5,-24 204.5,-30 198.5,-36 192.5,-36"/>
<text text-anchor="middle" x="177.5" y="-15.5" font-family="sans" font-size="10.00">all</text>
</g>
<!-- 1 -->
<g id="node2" class="node">
<title>1</title>
<path fill="none" stroke="#56d8d8" stroke-width="2" stroke-dasharray="5,2" d="M193,-108C193,-108 162,-108 162,-108 156,-108 150,-102 150,-96 150,-96 150,-84 150,-84 150,-78 156,-72 162,-72 162,-72 193,-72 193,-72 199,-72 205,-78 205,-84 205,-84 205,-96 205,-96 205,-102 199,-108 193,-108"/>
<text text-anchor="middle" x="177.5" y="-87.5" font-family="sans" font-size="10.00">bcftools</text>
</g>
<!-- 1&#45;&gt;0 -->
<g id="edge1" class="edge">
<title>1&#45;&gt;0</title>
<path fill="none" stroke="grey" stroke-width="2" d="M177.5,-71.7C177.5,-63.98 177.5,-54.71 177.5,-46.11"/>
<polygon fill="grey" stroke="grey" stroke-width="2" points="181,-46.1 177.5,-36.1 174,-46.1 181,-46.1"/>
</g>
<!-- 2 -->
<g id="node3" class="node">
<title>2</title>
<path fill="none" stroke="#569ad8" stroke-width="2" stroke-dasharray="5,2" d="M157,-252C157,-252 12,-252 12,-252 6,-252 0,-246 0,-240 0,-240 0,-228 0,-228 0,-222 6,-216 12,-216 12,-216 157,-216 157,-216 163,-216 169,-222 169,-228 169,-228 169,-240 169,-240 169,-246 163,-252 157,-252"/>
<text text-anchor="middle" x="84.5" y="-231.5" font-family="sans" font-size="10.00">detect_and_remove_duplicates</text>
</g>
<!-- 2&#45;&gt;1 -->
<g id="edge2" class="edge">
<title>2&#45;&gt;1</title>
<path fill="none" stroke="grey" stroke-width="2" d="M79.72,-215.96C75.44,-197.02 71.61,-166.18 84.5,-144 96.46,-123.43 119.72,-110.17 139.99,-102.07"/>
<polygon fill="grey" stroke="grey" stroke-width="2" points="141.47,-105.25 149.63,-98.49 139.04,-98.68 141.47,-105.25"/>
</g>
<!-- 4 -->
<g id="node5" class="node">
<title>4</title>
<path fill="none" stroke="#97d856" stroke-width="2" stroke-dasharray="5,2" d="M175.5,-180C175.5,-180 105.5,-180 105.5,-180 99.5,-180 93.5,-174 93.5,-168 93.5,-168 93.5,-156 93.5,-156 93.5,-150 99.5,-144 105.5,-144 105.5,-144 175.5,-144 175.5,-144 181.5,-144 187.5,-150 187.5,-156 187.5,-156 187.5,-168 187.5,-168 187.5,-174 181.5,-180 175.5,-180"/>
<text text-anchor="middle" x="140.5" y="-159.5" font-family="sans" font-size="10.00">samtools_index</text>
</g>
<!-- 2&#45;&gt;4 -->
<g id="edge8" class="edge">
<title>2&#45;&gt;4</title>
<path fill="none" stroke="grey" stroke-width="2" d="M98.34,-215.7C104.99,-207.39 113.08,-197.28 120.39,-188.14"/>
<polygon fill="grey" stroke="grey" stroke-width="2" points="123.3,-190.1 126.82,-180.1 117.84,-185.73 123.3,-190.1"/>
</g>
<!-- 3 -->
<g id="node4" class="node">
<title>3</title>
<path fill="none" stroke="#569ad8" stroke-width="2" stroke-dasharray="5,2" d="M344,-252C344,-252 199,-252 199,-252 193,-252 187,-246 187,-240 187,-240 187,-228 187,-228 187,-222 193,-216 199,-216 199,-216 344,-216 344,-216 350,-216 356,-222 356,-228 356,-228 356,-240 356,-240 356,-246 350,-252 344,-252"/>
<text text-anchor="middle" x="271.5" y="-231.5" font-family="sans" font-size="10.00">detect_and_remove_duplicates</text>
</g>
<!-- 3&#45;&gt;1 -->
<g id="edge3" class="edge">
<title>3&#45;&gt;1</title>
<path fill="none" stroke="grey" stroke-width="2" d="M259.33,-215.93C252.03,-205.6 242.61,-192.13 234.5,-180 220.43,-158.96 204.97,-134.75 193.71,-116.9"/>
<polygon fill="grey" stroke="grey" stroke-width="2" points="196.52,-114.79 188.23,-108.19 190.59,-118.52 196.52,-114.79"/>
</g>
<!-- 5 -->
<g id="node6" class="node">
<title>5</title>
<path fill="none" stroke="#97d856" stroke-width="2" stroke-dasharray="5,2" d="M325.5,-180C325.5,-180 255.5,-180 255.5,-180 249.5,-180 243.5,-174 243.5,-168 243.5,-168 243.5,-156 243.5,-156 243.5,-150 249.5,-144 255.5,-144 255.5,-144 325.5,-144 325.5,-144 331.5,-144 337.5,-150 337.5,-156 337.5,-156 337.5,-168 337.5,-168 337.5,-174 331.5,-180 325.5,-180"/>
<text text-anchor="middle" x="290.5" y="-159.5" font-family="sans" font-size="10.00">samtools_index</text>
</g>
<!-- 3&#45;&gt;5 -->
<g id="edge9" class="edge">
<title>3&#45;&gt;5</title>
<path fill="none" stroke="grey" stroke-width="2" d="M276.2,-215.7C278.31,-207.9 280.86,-198.51 283.22,-189.83"/>
<polygon fill="grey" stroke="grey" stroke-width="2" points="286.62,-190.67 285.86,-180.1 279.86,-188.84 286.62,-190.67"/>
</g>
<!-- 4&#45;&gt;1 -->
<g id="edge4" class="edge">
<title>4&#45;&gt;1</title>
<path fill="none" stroke="grey" stroke-width="2" d="M149.65,-143.7C153.9,-135.64 159.06,-125.89 163.77,-116.98"/>
<polygon fill="grey" stroke="grey" stroke-width="2" points="166.88,-118.58 168.46,-108.1 160.69,-115.31 166.88,-118.58"/>
</g>
<!-- 5&#45;&gt;1 -->
<g id="edge5" class="edge">
<title>5&#45;&gt;1</title>
<path fill="none" stroke="grey" stroke-width="2" d="M262.86,-143.88C248.08,-134.72 229.71,-123.34 213.8,-113.48"/>
<polygon fill="grey" stroke="grey" stroke-width="2" points="215.59,-110.48 205.25,-108.19 211.91,-116.43 215.59,-110.48"/>
</g>
<!-- 6 -->
<g id="node7" class="node">
<title>6</title>
<path fill="none" stroke="#d85656" stroke-width="2" stroke-dasharray="5,2" d="M154.5,-324C154.5,-324 92.5,-324 92.5,-324 86.5,-324 80.5,-318 80.5,-312 80.5,-312 80.5,-300 80.5,-300 80.5,-294 86.5,-288 92.5,-288 92.5,-288 154.5,-288 154.5,-288 160.5,-288 166.5,-294 166.5,-300 166.5,-300 166.5,-312 166.5,-312 166.5,-318 160.5,-324 154.5,-324"/>
<text text-anchor="middle" x="123.5" y="-303.5" font-family="sans" font-size="10.00">samtools_sort</text>
</g>
<!-- 6&#45;&gt;2 -->
<g id="edge6" class="edge">
<title>6&#45;&gt;2</title>
<path fill="none" stroke="grey" stroke-width="2" d="M113.86,-287.7C109.37,-279.64 103.94,-269.89 98.98,-260.98"/>
<polygon fill="grey" stroke="grey" stroke-width="2" points="101.95,-259.14 94.03,-252.1 95.84,-262.54 101.95,-259.14"/>
</g>
<!-- 7 -->
<g id="node8" class="node">
<title>7</title>
<path fill="none" stroke="#d85656" stroke-width="2" stroke-dasharray="5,2" d="M297.5,-324C297.5,-324 235.5,-324 235.5,-324 229.5,-324 223.5,-318 223.5,-312 223.5,-312 223.5,-300 223.5,-300 223.5,-294 229.5,-288 235.5,-288 235.5,-288 297.5,-288 297.5,-288 303.5,-288 309.5,-294 309.5,-300 309.5,-300 309.5,-312 309.5,-312 309.5,-318 303.5,-324 297.5,-324"/>
<text text-anchor="middle" x="266.5" y="-303.5" font-family="sans" font-size="10.00">samtools_sort</text>
</g>
<!-- 7&#45;&gt;3 -->
<g id="edge7" class="edge">
<title>7&#45;&gt;3</title>
<path fill="none" stroke="grey" stroke-width="2" d="M267.74,-287.7C268.29,-279.98 268.95,-270.71 269.56,-262.11"/>
<polygon fill="grey" stroke="grey" stroke-width="2" points="273.06,-262.33 270.28,-252.1 266.07,-261.83 273.06,-262.33"/>
</g>
<!-- 8 -->
<g id="node9" class="node">
<title>8</title>
<path fill="none" stroke="#d6d856" stroke-width="2" stroke-dasharray="5,2" d="M176,-396C176,-396 109,-396 109,-396 103,-396 97,-390 97,-384 97,-384 97,-372 97,-372 97,-366 103,-360 109,-360 109,-360 176,-360 176,-360 182,-360 188,-366 188,-372 188,-372 188,-384 188,-384 188,-390 182,-396 176,-396"/>
<text text-anchor="middle" x="142.5" y="-375.5" font-family="sans" font-size="10.00">align_into_sam</text>
</g>
<!-- 8&#45;&gt;6 -->
<g id="edge10" class="edge">
<title>8&#45;&gt;6</title>
<path fill="none" stroke="grey" stroke-width="2" d="M137.8,-359.7C135.69,-351.9 133.14,-342.51 130.78,-333.83"/>
<polygon fill="grey" stroke="grey" stroke-width="2" points="134.14,-332.84 128.14,-324.1 127.38,-334.67 134.14,-332.84"/>
</g>
<!-- 9 -->
<g id="node10" class="node">
<title>9</title>
<path fill="none" stroke="#d6d856" stroke-width="2" stroke-dasharray="5,2" d="M295,-396C295,-396 228,-396 228,-396 222,-396 216,-390 216,-384 216,-384 216,-372 216,-372 216,-366 222,-360 228,-360 228,-360 295,-360 295,-360 301,-360 307,-366 307,-372 307,-372 307,-384 307,-384 307,-390 301,-396 295,-396"/>
<text text-anchor="middle" x="261.5" y="-375.5" font-family="sans" font-size="10.00">align_into_sam</text>
</g>
<!-- 9&#45;&gt;7 -->
<g id="edge11" class="edge">
<title>9&#45;&gt;7</title>
<path fill="none" stroke="grey" stroke-width="2" d="M262.74,-359.7C263.29,-351.98 263.95,-342.71 264.56,-334.11"/>
<polygon fill="grey" stroke="grey" stroke-width="2" points="268.06,-334.33 265.28,-324.1 261.07,-333.83 268.06,-334.33"/>
</g>
<!-- 10 -->
<g id="node11" class="node">
<title>10</title>
<path fill="none" stroke="#59d856" stroke-width="2" stroke-dasharray="5,2" d="M175.5,-468C175.5,-468 133.5,-468 133.5,-468 127.5,-468 121.5,-462 121.5,-456 121.5,-456 121.5,-444 121.5,-444 121.5,-438 127.5,-432 133.5,-432 133.5,-432 175.5,-432 175.5,-432 181.5,-432 187.5,-438 187.5,-444 187.5,-444 187.5,-456 187.5,-456 187.5,-462 181.5,-468 175.5,-468"/>
<text text-anchor="middle" x="154.5" y="-453" font-family="sans" font-size="10.00">bwa_align</text>
<text text-anchor="middle" x="154.5" y="-442" font-family="sans" font-size="10.00">sample: A</text>
</g>
<!-- 10&#45;&gt;8 -->
<g id="edge12" class="edge">
<title>10&#45;&gt;8</title>
<path fill="none" stroke="grey" stroke-width="2" d="M151.53,-431.7C150.21,-423.98 148.62,-414.71 147.15,-406.11"/>
<polygon fill="grey" stroke="grey" stroke-width="2" points="150.57,-405.37 145.43,-396.1 143.67,-406.55 150.57,-405.37"/>
</g>
<!-- 11 -->
<g id="node12" class="node">
<title>11</title>
<path fill="none" stroke="#59d856" stroke-width="2" stroke-dasharray="5,2" d="M265.5,-468C265.5,-468 223.5,-468 223.5,-468 217.5,-468 211.5,-462 211.5,-456 211.5,-456 211.5,-444 211.5,-444 211.5,-438 217.5,-432 223.5,-432 223.5,-432 265.5,-432 265.5,-432 271.5,-432 277.5,-438 277.5,-444 277.5,-444 277.5,-456 277.5,-456 277.5,-462 271.5,-468 265.5,-468"/>
<text text-anchor="middle" x="244.5" y="-453" font-family="sans" font-size="10.00">bwa_align</text>
<text text-anchor="middle" x="244.5" y="-442" font-family="sans" font-size="10.00">sample: B</text>
</g>
<!-- 11&#45;&gt;9 -->
<g id="edge13" class="edge">
<title>11&#45;&gt;9</title>
<path fill="none" stroke="grey" stroke-width="2" d="M248.7,-431.7C250.6,-423.9 252.88,-414.51 254.98,-405.83"/>
<polygon fill="grey" stroke="grey" stroke-width="2" points="258.39,-406.65 257.35,-396.1 251.58,-405 258.39,-406.65"/>
</g>
<!-- 12 -->
<g id="node13" class="node">
<title>12</title>
<path fill="none" stroke="#d89556" stroke-width="2" stroke-dasharray="5,2" d="M219,-540C219,-540 174,-540 174,-540 168,-540 162,-534 162,-528 162,-528 162,-516 162,-516 162,-510 168,-504 174,-504 174,-504 219,-504 219,-504 225,-504 231,-510 231,-516 231,-516 231,-528 231,-528 231,-534 225,-540 219,-540"/>
<text text-anchor="middle" x="196.5" y="-519.5" font-family="sans" font-size="10.00">bwa_index</text>
</g>
<!-- 12&#45;&gt;10 -->
<g id="edge14" class="edge">
<title>12&#45;&gt;10</title>
<path fill="none" stroke="grey" stroke-width="2" d="M186.12,-503.7C181.24,-495.56 175.31,-485.69 169.92,-476.7"/>
<polygon fill="grey" stroke="grey" stroke-width="2" points="172.91,-474.88 164.76,-468.1 166.91,-478.48 172.91,-474.88"/>
</g>
<!-- 12&#45;&gt;11 -->
<g id="edge15" class="edge">
<title>12&#45;&gt;11</title>
<path fill="none" stroke="grey" stroke-width="2" d="M208.37,-503.7C214,-495.47 220.85,-485.48 227.07,-476.42"/>
<polygon fill="grey" stroke="grey" stroke-width="2" points="230,-478.33 232.77,-468.1 224.23,-474.37 230,-478.33"/>
</g>
</g>
</svg>
